<svg xmlns="http://www.w3.org/2000/svg" width="255.708" height="255.708" viewBox="0 0 255.708 255.708"><defs><style>.a{fill:#707070;}.b{fill:none;}</style></defs><path class="a" d="M79.24,109.585a13.793,13.793,0,1,0,13.793,13.793A13.8,13.8,0,0,0,79.24,109.585Zm66.206,0a13.793,13.793,0,1,0,13.793,13.793A13.8,13.8,0,0,0,145.447,109.585ZM112.344,2A110.344,110.344,0,1,0,222.687,112.344,110.384,110.384,0,0,0,112.344,2Zm0,198.618a88.392,88.392,0,0,1-88.275-88.275,89.463,89.463,0,0,1,.552-9.49A111.024,111.024,0,0,0,82.109,43.6a110.057,110.057,0,0,0,90.04,46.675,107.7,107.7,0,0,0,24.827-2.869,88.14,88.14,0,0,1-84.633,113.212Z" transform="translate(10.653 0.937)"/><path class="b" d="M0,0H255.708V255.708H0Z"/></svg>