<svg xmlns="http://www.w3.org/2000/svg" width="32.041" height="32.04" viewBox="0 0 32.041 32.04"><defs><style>.a{fill:#fff;}</style></defs><g transform="translate(0 -0.004)"><path class="a" d="M20.025,17.359a1.335,1.335,0,0,0-1.335,1.335v5.34a1.336,1.336,0,0,1-1.335,1.335H13.35V5.344a2.691,2.691,0,0,0-1.818-2.538l-.4-.132h6.218A1.336,1.336,0,0,1,18.69,4.009V8.014a1.335,1.335,0,0,0,2.67,0V4.009A4.01,4.01,0,0,0,17.355,0H3a1.049,1.049,0,0,0-.143.029C2.8.028,2.735,0,2.67,0A2.673,2.673,0,0,0,0,2.674V26.7a2.691,2.691,0,0,0,1.818,2.538L9.852,31.92a2.764,2.764,0,0,0,.828.124,2.673,2.673,0,0,0,2.67-2.67V28.039h4.005a4.01,4.01,0,0,0,4.005-4.005v-5.34A1.335,1.335,0,0,0,20.025,17.359Zm0,0"/><path class="a" d="M291.626,112.4l-5.34-5.34a1.334,1.334,0,0,0-2.279.944v4.005h-5.34a1.335,1.335,0,1,0,0,2.67h5.34v4.005a1.335,1.335,0,0,0,2.279.944l5.34-5.34A1.334,1.334,0,0,0,291.626,112.4Zm0,0" transform="translate(-259.977 -99.987)"/></g></svg>