<svg xmlns="http://www.w3.org/2000/svg" xmlns:xlink="http://www.w3.org/1999/xlink" width="2432.741" height="1368.919" viewBox="0 0 2432.741 1368.919"><defs><style>.a{fill:#222627;}.b{fill:#383e40;}.c{fill:#52595a;}.d{fill:#798081;}.e{fill:#959ea0;}.f{fill:none;stroke:#d8d8d8;}.g{mix-blend-mode:overlay;isolation:isolate;fill:url(#a);}</style><linearGradient id="a" x1="0.5" x2="0.5" y2="1" gradientUnits="objectBoundingBox"><stop offset="0" stop-color="#fff"/><stop offset="0.64" stop-color="#222627"/><stop offset="0.798" stop-color="#222627"/><stop offset="1" stop-color="#fff"/></linearGradient></defs><g transform="translate(178.093)"><rect class="a" width="1920" height="1080" transform="translate(55 177)"/><rect class="a" width="138" height="16" transform="translate(1118 1214)"/><path class="b" d="M259.753,721.6s107.705,23.778,230.643-7.534S666.222,596.348,751.506,596.348s129.838,86.4,227.564,117.715,163.342,7.534,163.342,7.534L1477.339,657.7l106.418,29.874,98.891,121.281L1095.7,851.982-61,831.552l-490.84-86.933s340.157-101.952,430.756-151.078,101.462-68.734,135.336-68.652,33.668,43.584,52.183,71.46S100.778,640.534,141,642.88s81.174-52.676,140.4-46.532,39.72,63.984,96.513,71.109S259.753,721.6,259.753,721.6Z" transform="translate(572 339.697)"/><path class="c" d="M-191.185,588.715c169.861,5.772,215.312,36.229,465.324,60.115s415.746,52.584,678.988,30.8,246.281-36.553,405.726-90.914,175.628-79.4,236.71-41.269,29.9,153.391,29.9,153.391l90.244,254.955L641.812,992.95l-1264.9-126.132L-405.305,625.74S-361.046,582.942-191.185,588.715Z" transform="translate(445 335.697)"/><path class="d" d="M-421.241,649.287C-270.413,674.882-116.853,685.5-25.894,689.4s355.947-26.861,613.562-19.269,596.537,22.936,733.138,37.006,333.555,0,333.555,0l49.182,131.742L1151.3,881.486C1013.245,892.138,2.189,871.321,2.189,871.321l-538.544-36.449V730.947Z" transform="translate(445 432.654)"/><path class="e" d="M-511.8,772.3l215.964-15.689S61.729,800.719,263.42,772.3s568.625-62.554,907.065-63.091,365.126,11.664,489.1,20.931S1791.17,826.8,1791.17,826.8l-131.588,90.466-933.471-8.04-844.636-22.3L-511.8,856.356Z" transform="translate(333.712 451.654)"/><g transform="translate(55 177)"><g transform="translate(844.139 234.643)"><line class="f" y1="15" x2="15" transform="translate(0 7.754)"/><line class="f" x1="20.721" y1="22.754"/><line class="f" y2="15" transform="translate(10.36 7.754)"/></g><g transform="matrix(0.998, 0.07, -0.07, 0.998, 872.47, 91.305)"><line class="f" x1="15" y1="15" transform="translate(5.721 7.754)"/><line class="f" y1="22.754" x2="20.721" transform="translate(0 0)"/><line class="f" y2="15" transform="translate(10.36 7.754)"/></g><g transform="matrix(0.998, 0.07, -0.07, 0.998, 1583.47, 244.305)"><line class="f" x1="15" y1="15" transform="translate(5.721 7.754)"/><line class="f" y1="22.754" x2="20.721" transform="translate(0 0)"/><line class="f" y2="15" transform="translate(10.36 7.754)"/></g><g transform="matrix(-0.799, -0.602, 0.602, -0.799, 983.26, 389.954)"><line class="f" x1="15" y2="15" transform="translate(5.721 0)"/><line class="f" x2="20.721" y2="22.754" transform="translate(0 0)"/><line class="f" y1="15" transform="translate(10.36 0)"/></g><g transform="matrix(-0.799, -0.602, 0.602, -0.799, 245.26, 274.954)"><line class="f" x1="15" y2="15" transform="translate(5.721 0)"/><line class="f" x2="20.721" y2="22.754" transform="translate(0 0)"/><line class="f" y1="15" transform="translate(10.36 0)"/></g><g transform="matrix(-0.799, -0.602, 0.602, -0.799, 614.26, 117.954)"><line class="f" x1="15" y2="15" transform="translate(5.721 0)"/><line class="f" x2="20.721" y2="22.754" transform="translate(0 0)"/><line class="f" y1="15" transform="translate(10.36 0)"/></g><g transform="matrix(-0.454, 0.891, -0.891, -0.454, 1306.992, 234.253)"><line class="f" x1="15" y2="15" transform="translate(5.721 0)"/><line class="f" x2="20.721" y2="22.754" transform="translate(0 0)"/><line class="f" y1="15" transform="translate(10.36 0)"/></g><g transform="translate(1212.658 374.023) rotate(-139)"><line class="f" x1="15" y1="15" transform="translate(5.721 7.754)"/><line class="f" y1="22.754" x2="20.721" transform="translate(0 0)"/><line class="f" y2="15" transform="translate(10.36 7.754)"/></g><g transform="translate(1769.658 228.023) rotate(-139)"><line class="f" x1="15" y1="15" transform="translate(5.721 7.754)"/><line class="f" y1="22.754" x2="20.721" transform="translate(0 0)"/><line class="f" y2="15" transform="translate(10.36 7.754)"/></g><g transform="matrix(-0.454, 0.891, -0.891, -0.454, 998.189, 571.44)"><line class="f" x1="15" y2="15" transform="translate(5.721 0)"/><line class="f" x2="20.721" y2="22.754" transform="translate(0 0)"/><line class="f" y1="15" transform="translate(10.36)"/></g><g transform="matrix(-0.454, 0.891, -0.891, -0.454, 1167.524, 88.674)"><line class="f" x1="15" y2="15" transform="translate(5.721 0)"/><line class="f" x2="20.721" y2="22.754" transform="translate(0 0)"/><line class="f" y1="15" transform="translate(10.36 0)"/></g><g transform="matrix(-0.454, 0.891, -0.891, -0.454, 538.524, 205.674)"><line class="f" x1="15" y2="15" transform="translate(5.721 0)"/><line class="f" x2="20.721" y2="22.754" transform="translate(0 0)"/><line class="f" y1="15" transform="translate(10.36 0)"/></g><g transform="matrix(-0.454, 0.891, -0.891, -0.454, 81.524, 65.674)"><line class="f" x1="15" y2="15" transform="translate(5.721 0)"/><line class="f" x2="20.721" y2="22.754" transform="translate(0 0)"/><line class="f" y1="15" transform="translate(10.36 0)"/></g><g transform="matrix(-0.454, 0.891, -0.891, -0.454, 1707.524, 52.674)"><line class="f" x1="15" y2="15" transform="translate(5.721 0)"/><line class="f" x2="20.721" y2="22.754" transform="translate(0 0)"/><line class="f" y1="15" transform="translate(10.36 0)"/></g><g transform="matrix(-0.454, 0.891, -0.891, -0.454, 1539.524, 100.674)"><line class="f" x1="15" y2="15" transform="translate(5.721 0)"/><line class="f" x2="20.721" y2="22.754" transform="translate(0 0)"/><line class="f" y1="15" transform="translate(10.36 0)"/></g><g transform="matrix(0.799, -0.602, 0.602, 0.799, 1187.104, 170.643)"><line class="f" x1="15" y1="15" transform="translate(5.721 7.754)"/><line class="f" y1="22.754" x2="20.721" transform="translate(0 0)"/><line class="f" y2="15" transform="translate(10.36 7.754)"/></g><g transform="matrix(0.966, 0.259, -0.259, 0.966, 1157.545, 430.577)"><line class="f" x1="15" y2="15" transform="translate(5.721 0)"/><line class="f" x2="20.721" y2="22.754" transform="translate(0 0)"/><line class="f" y1="15" transform="translate(10.36 0)"/></g><g transform="matrix(0.799, -0.602, 0.602, 0.799, 886.244, 508.08)"><line class="f" x1="15" y1="15" transform="translate(5.721 7.754)"/><line class="f" y1="22.754" x2="20.721" transform="translate(0 0)"/><line class="f" y2="15" transform="translate(10.36 7.754)"/></g><g transform="matrix(0.799, -0.602, 0.602, 0.799, 913.163, 730.625)"><line class="f" x1="15" y1="15" transform="translate(5.721 7.754)"/><line class="f" y1="22.754" x2="20.721" transform="translate(0 0)"/><line class="f" y2="15" transform="translate(10.36 7.754)"/></g><g transform="matrix(0.799, -0.602, 0.602, 0.799, 1055.676, 41.001)"><line class="f" x1="15" y1="15" transform="translate(5.721 7.754)"/><line class="f" y1="22.754" x2="20.721" transform="translate(0 0)"/><line class="f" y2="15" transform="translate(10.36 7.754)"/></g><g transform="matrix(0.799, -0.602, 0.602, 0.799, 335.676, 161.001)"><line class="f" x1="15" y1="15" transform="translate(5.721 7.754)"/><line class="f" y1="22.754" x2="20.721" transform="translate(0 0)"/><line class="f" y2="15" transform="translate(10.36 7.754)"/></g><g transform="matrix(0.799, -0.602, 0.602, 0.799, 1353.676, 63.001)"><line class="f" x1="15" y1="15" transform="translate(5.721 7.754)"/><line class="f" y1="22.754" x2="20.721" transform="translate(0 0)"/><line class="f" y2="15" transform="translate(10.36 7.754)"/></g><g transform="matrix(0.799, -0.602, 0.602, 0.799, 267.676, 40.001)"><line class="f" x1="15" y1="15" transform="translate(5.721 7.754)"/><line class="f" y1="22.754" x2="20.721" transform="translate(0 0)"/><line class="f" y2="15" transform="translate(10.36 7.754)"/></g><g transform="matrix(0.799, -0.602, 0.602, 0.799, 487.676, 41.001)"><line class="f" x1="15" y1="15" transform="translate(5.721 7.754)"/><line class="f" y1="22.754" x2="20.721" transform="translate(0 0)"/><line class="f" y2="15" transform="translate(10.36 7.754)"/></g><g transform="matrix(-0.799, 0.602, -0.602, -0.799, 1510.6, 29.658)"><line class="f" x1="15" y1="15" transform="translate(5.721 7.754)"/><line class="f" y1="22.754" x2="20.721" transform="translate(0 0)"/><line class="f" y2="15" transform="translate(10.36 7.754)"/></g><g transform="matrix(0.799, -0.602, 0.602, 0.799, 718.396, 47.001)"><line class="f" x1="15" y1="15" transform="translate(5.721 7.754)"/><line class="f" y1="22.754" x2="20.721" transform="translate(0)"/><line class="f" y2="15" transform="translate(10.36 7.754)"/></g><g transform="matrix(0.799, -0.602, 0.602, 0.799, 150.396, 47.001)"><line class="f" x1="15" y1="15" transform="translate(5.721 7.754)"/><line class="f" y1="22.754" x2="20.721" transform="translate(0)"/><line class="f" y2="15" transform="translate(10.36 7.754)"/></g><g transform="matrix(-0.799, 0.602, -0.602, -0.799, 1847.88, 23.658)"><line class="f" x1="15" y1="15" transform="translate(5.721 7.754)"/><line class="f" y1="22.754" x2="20.721" transform="translate(0 0)"/><line class="f" y2="15" transform="translate(10.36 7.754)"/></g><g transform="translate(766.563 91.389)"><line class="f" x2="15" y2="15"/><line class="f" x1="20.721" y2="22.754"/><line class="f" y1="15" transform="translate(10.36)"/></g><g transform="matrix(0.998, 0.07, -0.07, 0.998, 932.092, 7.262)"><line class="f" x1="15" y2="15" transform="translate(5.721 0)"/><line class="f" x2="20.721" y2="22.754" transform="translate(0 0)"/><line class="f" y1="15" transform="translate(10.36 0)"/></g><g transform="matrix(0.998, 0.07, -0.07, 0.998, 364.092, 7.262)"><line class="f" x1="15" y2="15" transform="translate(5.721 0)"/><line class="f" x2="20.721" y2="22.754" transform="translate(0 0)"/><line class="f" y1="15" transform="translate(10.36 0)"/></g><g transform="matrix(-0.998, -0.07, 0.07, -0.998, 1634.183, 63.397)"><line class="f" x1="15" y2="15" transform="translate(5.721 0)"/><line class="f" x2="20.721" y2="22.754" transform="translate(0 0)"/><line class="f" y1="15" transform="translate(10.36 0)"/></g><g transform="matrix(-0.799, -0.602, 0.602, -0.799, 1025.21, 273.069)"><line class="f" x1="15" y1="15" transform="translate(5.721 7.754)"/><line class="f" y1="22.754" x2="20.721" transform="translate(0 0)"/><line class="f" y2="15" transform="translate(10.36 7.754)"/></g><g transform="matrix(-0.799, -0.602, 0.602, -0.799, 137.21, 29.069)"><line class="f" x1="15" y1="15" transform="translate(5.721 7.754)"/><line class="f" y1="22.754" x2="20.721" transform="translate(0 0)"/><line class="f" y2="15" transform="translate(10.36 7.754)"/></g><g transform="matrix(-0.454, 0.891, -0.891, -0.454, 1153.934, 220.036)"><line class="f" x1="15" y1="15" transform="translate(5.721 7.754)"/><line class="f" y1="22.754" x2="20.721" transform="translate(0 0)"/><line class="f" y2="15" transform="translate(10.36 7.754)"/></g><g transform="translate(1084.527 432.618) rotate(-139)"><line class="f" x1="15" y2="15" transform="translate(5.721 0)"/><line class="f" x2="20.721" y2="22.754" transform="translate(0 0)"/><line class="f" y1="15" transform="translate(10.36 0)"/></g><g transform="matrix(-0.454, 0.891, -0.891, -0.454, 1022.58, 77.922)"><line class="f" x1="15" y1="15" transform="translate(5.721 7.754)"/><line class="f" y1="22.754" x2="20.721" transform="translate(0 0)"/><line class="f" y2="15" transform="translate(10.36 7.754)"/></g><g transform="matrix(-0.454, 0.891, -0.891, -0.454, 1733.58, 230.922)"><line class="f" x1="15" y1="15" transform="translate(5.721 7.754)"/><line class="f" y1="22.754" x2="20.721" transform="translate(0 0)"/><line class="f" y2="15" transform="translate(10.36 7.754)"/></g><g transform="matrix(-0.454, 0.891, -0.891, -0.454, 1385.58, 179.922)"><line class="f" x1="15" y1="15" transform="translate(5.721 7.754)"/><line class="f" y1="22.754" x2="20.721" transform="translate(0 0)"/><line class="f" y2="15" transform="translate(10.36 7.754)"/></g><g transform="matrix(0.799, -0.602, 0.602, 0.799, 1145.154, 43.671)"><line class="f" x1="15" y2="15" transform="translate(5.721 0)"/><line class="f" x2="20.721" y2="22.754" transform="translate(0 0)"/><line class="f" y1="15" transform="translate(10.36 0)"/></g><g transform="matrix(0.799, -0.602, 0.602, 0.799, 1733.154, 12.671)"><line class="f" x1="15" y2="15" transform="translate(5.721 0)"/><line class="f" x2="20.721" y2="22.754" transform="translate(0 0)"/><line class="f" y1="15" transform="translate(10.36 0)"/></g><g transform="matrix(0.799, -0.602, 0.602, 0.799, 453.154, 106.671)"><line class="f" x1="15" y2="15" transform="translate(5.721 0)"/><line class="f" x2="20.721" y2="22.754" transform="translate(0 0)"/><line class="f" y1="15" transform="translate(10.36 0)"/></g><g transform="matrix(0.799, -0.602, 0.602, 0.799, 1566.154, 66.671)"><line class="f" x1="15" y2="15" transform="translate(5.721 0)"/><line class="f" x2="20.721" y2="22.754" transform="translate(0 0)"/><line class="f" y1="15" transform="translate(10.36 0)"/></g><g transform="matrix(0.799, -0.602, 0.602, 0.799, 577.154, 43.671)"><line class="f" x1="15" y2="15" transform="translate(5.721 0)"/><line class="f" x2="20.721" y2="22.754" transform="translate(0 0)"/><line class="f" y1="15" transform="translate(10.36 0)"/></g><g transform="matrix(-0.799, 0.602, -0.602, -0.799, 1421.122, 26.987)"><line class="f" x1="15" y2="15" transform="translate(5.721 0)"/><line class="f" x2="20.721" y2="22.754" transform="translate(0 0)"/><line class="f" y1="15" transform="translate(10.36 0)"/></g><g transform="translate(751.156 233.937)"><line class="f" y1="15" x2="15"/><line class="f" x1="10.185" y1="9" transform="translate(2.408 3)"/><line class="f" y2="15" transform="translate(7.5)"/></g><g transform="matrix(0.998, 0.07, -0.07, 0.998, 954.602, 95.011)"><line class="f" x1="15" y1="15" transform="translate(0 0)"/><line class="f" y1="9" x2="10.185" transform="translate(2.408 3)"/><line class="f" y2="15" transform="translate(7.5)"/></g><g transform="matrix(0.998, 0.07, -0.07, 0.998, 1665.602, 248.011)"><line class="f" x1="15" y1="15" transform="translate(0 0)"/><line class="f" y1="9" x2="10.185" transform="translate(2.408 3)"/><line class="f" y2="15" transform="translate(7.5)"/></g><g transform="matrix(-0.799, -0.602, 0.602, -0.799, 924.331, 341.339)"><line class="f" x1="15" y2="15" transform="translate(0 0)"/><line class="f" x2="10.185" y2="9" transform="translate(2.408 3)"/><line class="f" y1="15" transform="translate(7.5 0)"/></g><g transform="matrix(-0.799, -0.602, 0.602, -0.799, 186.331, 226.339)"><line class="f" x1="15" y2="15" transform="translate(0 0)"/><line class="f" x2="10.185" y2="9" transform="translate(2.408 3)"/><line class="f" y1="15" transform="translate(7.5 0)"/></g><g transform="matrix(-0.454, 0.891, -0.891, -0.454, 1275.964, 292.355)"><line class="f" x1="15" y2="15" transform="translate(0 0)"/><line class="f" x2="10.185" y2="9" transform="translate(2.408 3)"/><line class="f" y1="15" transform="translate(7.5 0)"/></g><g transform="matrix(-0.454, 0.891, -0.891, -0.454, 1832.964, 146.355)"><line class="f" x1="15" y2="15" transform="translate(0 0)"/><line class="f" x2="10.185" y2="9" transform="translate(2.408 3)"/><line class="f" y1="15" transform="translate(7.5 0)"/></g><g transform="translate(1147.718 329.826) rotate(-139)"><line class="f" x1="15" y1="15" transform="translate(0 0)"/><line class="f" y1="9" x2="10.185" transform="translate(2.408 3)"/><line class="f" y2="15" transform="translate(7.5 0)"/></g><g transform="translate(1704.718 183.826) rotate(-139)"><line class="f" x1="15" y1="15" transform="translate(0 0)"/><line class="f" y1="9" x2="10.185" transform="translate(2.408 3)"/><line class="f" y2="15" transform="translate(7.5 0)"/></g><g transform="matrix(-0.454, 0.891, -0.891, -0.454, 952.587, 628.397)"><line class="f" x1="15" y2="15" transform="translate(0 0)"/><line class="f" x2="10.185" y2="9" transform="translate(2.408 3)"/><line class="f" y1="15" transform="translate(7.5 0)"/></g><g transform="matrix(-0.454, 0.891, -0.891, -0.454, 979.238, 822.116)"><line class="f" x1="15" y2="15" transform="translate(0 0)"/><line class="f" x2="10.185" y2="9" transform="translate(2.408 3)"/><line class="f" y1="15" transform="translate(7.5 0)"/></g><g transform="matrix(-0.454, 0.891, -0.891, -0.454, 1120.327, 172.434)"><line class="f" x1="15" y2="15" transform="translate(0 0)"/><line class="f" x2="10.185" y2="9" transform="translate(2.408 3)"/><line class="f" y1="15" transform="translate(7.5 0)"/></g><g transform="translate(1080.453 482.047) rotate(-139)"><line class="f" x1="15" y1="15" transform="translate(0 0)"/><line class="f" y1="9" x2="10.185" transform="translate(2.408 3)"/><line class="f" y2="15" transform="translate(7.5 0)"/></g><g transform="matrix(0.799, -0.602, 0.602, 0.799, 1875.699, 29.027)"><line class="f" x1="15" y1="15" transform="translate(0 0)"/><line class="f" y1="9" x2="10.185" transform="translate(2.408 3)"/><line class="f" y2="15" transform="translate(7.5 0)"/></g><g transform="matrix(0.799, -0.602, 0.602, 0.799, 181.699, 77.027)"><line class="f" x1="15" y1="15" transform="translate(0 0)"/><line class="f" y1="9" x2="10.185" transform="translate(2.408 3)"/><line class="f" y2="15" transform="translate(7.5 0)"/></g><g transform="matrix(0.799, -0.602, 0.602, 0.799, 951.273, 465.139)"><line class="f" x1="15" y1="15" transform="translate(0 0)"/><line class="f" y1="9" x2="10.185" transform="translate(2.408 3)"/><line class="f" y2="15" transform="translate(7.5 0)"/></g><g transform="matrix(0.799, -0.602, 0.602, 0.799, 977.945, 658.92)"><line class="f" x1="15" y1="15" transform="translate(0 0)"/><line class="f" y1="9" x2="10.185" transform="translate(2.408 3)"/><line class="f" y2="15" transform="translate(7.5 0)"/></g><g transform="matrix(0.799, -0.602, 0.602, 0.799, 1119.149, 9.027)"><line class="f" x1="15" y1="15" transform="translate(0 0)"/><line class="f" y1="9" x2="10.185" transform="translate(2.408 3)"/><line class="f" y2="15" transform="translate(7.5 0)"/></g><g transform="matrix(0.799, -0.602, 0.602, 0.799, 1452.149, 104.027)"><line class="f" x1="15" y1="15" transform="translate(0 0)"/><line class="f" y1="9" x2="10.185" transform="translate(2.408 3)"/><line class="f" y2="15" transform="translate(7.5 0)"/></g><g transform="matrix(0.799, -0.602, 0.602, 0.799, 427.149, 72.027)"><line class="f" x1="15" y1="15" transform="translate(0 0)"/><line class="f" y1="9" x2="10.185" transform="translate(2.408 3)"/><line class="f" y2="15" transform="translate(7.5 0)"/></g><g transform="matrix(0.799, -0.602, 0.602, 0.799, 551.149, 9.027)"><line class="f" x1="15" y1="15" transform="translate(0 0)"/><line class="f" y1="9" x2="10.185" transform="translate(2.408 3)"/><line class="f" y2="15" transform="translate(7.5 0)"/></g><g transform="matrix(-0.799, 0.602, -0.602, -0.799, 1447.126, 61.631)"><line class="f" x1="15" y1="15" transform="translate(0 0)"/><line class="f" y1="9" x2="10.185" transform="translate(2.408 3)"/><line class="f" y2="15" transform="translate(7.5 0)"/></g><g transform="matrix(-0.799, 0.602, -0.602, -0.799, 361.126, 38.631)"><line class="f" x1="15" y1="15" transform="translate(0 0)"/><line class="f" y1="9" x2="10.185" transform="translate(2.408 3)"/><line class="f" y2="15" transform="translate(7.5 0)"/></g><g transform="matrix(0.799, -0.602, 0.602, 0.799, 760.826, 15.027)"><line class="f" x1="15" y1="15"/><line class="f" y1="9" x2="10.185" transform="translate(2.408 3)"/><line class="f" y2="15" transform="translate(7.5 0)"/></g><g transform="matrix(0.799, -0.602, 0.602, 0.799, 192.826, 15.027)"><line class="f" x1="15" y1="15"/><line class="f" y1="9" x2="10.185" transform="translate(2.408 3)"/><line class="f" y2="15" transform="translate(7.5 0)"/></g><g transform="matrix(-0.799, 0.602, -0.602, -0.799, 1805.45, 55.631)"><line class="f" x1="15" y1="15" transform="translate(0 0)"/><line class="f" y1="9" x2="10.185" transform="translate(2.408 3)"/><line class="f" y2="15" transform="translate(7.5 0)"/></g><g transform="translate(719.156 99.143)"><line class="f" x2="15" y2="15"/><line class="f" x1="10.185" y2="9" transform="translate(2.408 3)"/><line class="f" y1="15" transform="translate(7.5)"/></g><g transform="matrix(0.998, 0.07, -0.07, 0.998, 1013.02, 18.703)"><line class="f" x1="15" y2="15" transform="translate(0 0)"/><line class="f" x2="10.185" y2="9" transform="translate(2.408 3)"/><line class="f" y1="15" transform="translate(7.5 0)"/></g><g transform="matrix(0.998, 0.07, -0.07, 0.998, 1346.02, 113.703)"><line class="f" x1="15" y2="15" transform="translate(0 0)"/><line class="f" x2="10.185" y2="9" transform="translate(2.408 3)"/><line class="f" y1="15" transform="translate(7.5 0)"/></g><g transform="matrix(0.998, 0.07, -0.07, 0.998, 260.02, 90.703)"><line class="f" x1="15" y2="15" transform="translate(0 0)"/><line class="f" x2="10.185" y2="9" transform="translate(2.408 3)"/><line class="f" y1="15" transform="translate(7.5 0)"/></g><g transform="matrix(0.998, 0.07, -0.07, 0.998, 445.02, 18.703)"><line class="f" x1="15" y2="15" transform="translate(0 0)"/><line class="f" x2="10.185" y2="9" transform="translate(2.408 3)"/><line class="f" y1="15" transform="translate(7.5 0)"/></g><g transform="matrix(-0.998, -0.07, 0.07, -0.998, 1553.256, 51.956)"><line class="f" x1="15" y2="15" transform="translate(0 0)"/><line class="f" x2="10.185" y2="9" transform="translate(2.408 3)"/><line class="f" y1="15" transform="translate(7.5 0)"/></g><g transform="matrix(-0.799, -0.602, 0.602, -0.799, 958.574, 233.063)"><line class="f" x1="15" y1="15" transform="translate(0 0)"/><line class="f" y1="9" x2="10.185" transform="translate(2.408 3)"/><line class="f" y2="15" transform="translate(7.5 0)"/></g><g transform="matrix(-0.454, 0.891, -0.891, -0.454, 1117.695, 282.825)"><line class="f" x1="15" y1="15" transform="translate(0 0)"/><line class="f" y1="9" x2="10.185" transform="translate(2.408 3)"/><line class="f" y2="15" transform="translate(7.5 0)"/></g><g transform="matrix(-0.454, 0.891, -0.891, -0.454, 1674.695, 136.825)"><line class="f" x1="15" y1="15" transform="translate(0 0)"/><line class="f" y1="9" x2="10.185" transform="translate(2.408 3)"/><line class="f" y2="15" transform="translate(7.5 0)"/></g><g transform="matrix(-0.454, 0.891, -0.891, -0.454, 229.695, 38.825)"><line class="f" x1="15" y1="15" transform="translate(0 0)"/><line class="f" y1="9" x2="10.185" transform="translate(2.408 3)"/><line class="f" y2="15" transform="translate(7.5 0)"/></g><g transform="translate(1028.769 380.484) rotate(-139)"><line class="f" x1="15" y2="15" transform="translate(0 0)"/><line class="f" x2="10.185" y2="9" transform="translate(2.408 3)"/><line class="f" y1="15" transform="translate(7.5 0)"/></g><g transform="translate(659.769 108.484) rotate(-139)"><line class="f" x1="15" y2="15" transform="translate(0 0)"/><line class="f" x2="10.185" y2="9" transform="translate(2.408 3)"/><line class="f" y1="15" transform="translate(7.5 0)"/></g><g transform="matrix(0.799, -0.602, 0.602, 0.799, 1245.873, 17.891)"><line class="f" x1="15" y2="15" transform="translate(0 0)"/><line class="f" x2="10.185" y2="9" transform="translate(2.408 3)"/><line class="f" y1="15" transform="translate(7.5 0)"/></g><g transform="matrix(0.799, -0.602, 0.602, 0.799, 677.873, 17.891)"><line class="f" x1="15" y2="15" transform="translate(0 0)"/><line class="f" x2="10.185" y2="9" transform="translate(2.408 3)"/><line class="f" y1="15" transform="translate(7.5 0)"/></g><g transform="matrix(-0.799, 0.602, -0.602, -0.799, 1320.402, 52.768)"><line class="f" x1="15" y2="15" transform="translate(0 0)"/><line class="f" x2="10.185" y2="9" transform="translate(2.408 3)"/><line class="f" y1="15" transform="translate(7.5 0)"/></g><g transform="translate(782.187 211.506)"><line class="f" y1="9.732" x2="9.969"/><line class="f" x1="5.153" y1="3.732" transform="translate(2.408 3)"/><line class="f" y2="9.732" transform="translate(4.984)"/></g><g transform="matrix(0.998, 0.07, -0.07, 0.998, 915.133, 76.506)"><line class="f" x1="9.969" y1="9.732" transform="translate(0 0)"/><line class="f" y1="3.732" x2="5.153" transform="translate(2.408 3)"/><line class="f" y2="9.732" transform="translate(4.984 0)"/></g><g transform="matrix(0.998, 0.07, -0.07, 0.998, 1626.133, 229.506)"><line class="f" x1="9.969" y1="9.732" transform="translate(0 0)"/><line class="f" y1="3.732" x2="5.153" transform="translate(2.408 3)"/><line class="f" y2="9.732" transform="translate(4.984 0)"/></g><g transform="matrix(0.998, 0.07, -0.07, 0.998, 850.133, 41.506)"><line class="f" x1="9.969" y1="9.732" transform="translate(0 0)"/><line class="f" y1="3.732" x2="5.153" transform="translate(2.408 3)"/><line class="f" y2="9.732" transform="translate(4.984 0)"/></g><g transform="matrix(-0.799, -0.602, 0.602, -0.799, 978.218, 340.192)"><line class="f" x1="9.969" y2="9.732" transform="translate(0 0)"/><line class="f" x2="5.153" y2="3.732" transform="translate(2.408 3)"/><line class="f" y1="9.732" transform="translate(4.984 0)"/></g><g transform="matrix(-0.454, 0.891, -0.891, -0.454, 1268.166, 248.775)"><line class="f" x1="9.969" y2="9.732" transform="translate(0 0)"/><line class="f" x2="5.153" y2="3.732" transform="translate(2.408 3)"/><line class="f" y1="9.732" transform="translate(4.984)"/></g><g transform="translate(1160.398 370.272) rotate(-139)"><line class="f" x1="9.969" y1="9.732" transform="translate(0 0)"/><line class="f" y1="3.732" x2="5.153" transform="translate(2.408 3)"/><line class="f" y2="9.732" transform="translate(4.984 0)"/></g><g transform="matrix(-0.454, 0.891, -0.891, -0.454, 942.903, 583.927)"><line class="f" x1="9.969" y2="9.732" transform="translate(0 0)"/><line class="f" x2="5.153" y2="3.732" transform="translate(2.408 3)"/><line class="f" y1="9.732" transform="translate(4.984 0)"/></g><g transform="matrix(-0.454, 0.891, -0.891, -0.454, 969.375, 788.962)"><line class="f" x1="9.969" y2="9.732" transform="translate(0 0)"/><line class="f" x2="5.153" y2="3.732" transform="translate(2.408 3)"/><line class="f" y1="9.732" transform="translate(4.984 0)"/></g><g transform="matrix(-0.454, 0.891, -0.891, -0.454, 1109.523, 99.337)"><line class="f" x1="9.969" y2="9.732" transform="translate(0 0)"/><line class="f" x2="5.153" y2="3.732" transform="translate(2.408 3)"/><line class="f" y1="9.732" transform="translate(4.984 0)"/></g><g transform="matrix(-0.454, 0.891, -0.891, -0.454, 480.523, 216.337)"><line class="f" x1="9.969" y2="9.732" transform="translate(0 0)"/><line class="f" x2="5.153" y2="3.732" transform="translate(2.408 3)"/><line class="f" y1="9.732" transform="translate(4.984 0)"/></g><g transform="matrix(-0.454, 0.891, -0.891, -0.454, 389.523, 219.337)"><line class="f" x1="9.969" y2="9.732" transform="translate(0 0)"/><line class="f" x2="5.153" y2="3.732" transform="translate(2.408 3)"/><line class="f" y1="9.732" transform="translate(4.984 0)"/></g><g transform="matrix(-0.454, 0.891, -0.891, -0.454, 23.523, 76.337)"><line class="f" x1="9.969" y2="9.732" transform="translate(0 0)"/><line class="f" x2="5.153" y2="3.732" transform="translate(2.408 3)"/><line class="f" y1="9.732" transform="translate(4.984 0)"/></g><g transform="matrix(-0.454, 0.891, -0.891, -0.454, 1433.523, 212.337)"><line class="f" x1="9.969" y2="9.732" transform="translate(0 0)"/><line class="f" x2="5.153" y2="3.732" transform="translate(2.408 3)"/><line class="f" y1="9.732" transform="translate(4.984 0)"/></g><g transform="matrix(0.799, -0.602, 0.602, 0.799, 1197.664, 102.311)"><line class="f" x1="9.969" y1="9.732" transform="translate(0 0)"/><line class="f" y1="3.732" x2="5.153" transform="translate(2.408 3)"/><line class="f" y2="9.732" transform="translate(4.984 0)"/></g><g transform="matrix(0.799, -0.602, 0.602, 0.799, 568.664, 219.311)"><line class="f" x1="9.969" y1="9.732" transform="translate(0 0)"/><line class="f" y1="3.732" x2="5.153" transform="translate(2.408 3)"/><line class="f" y2="9.732" transform="translate(4.984 0)"/></g><g transform="matrix(0.799, -0.602, 0.602, 0.799, 111.664, 79.311)"><line class="f" x1="9.969" y1="9.732" transform="translate(0 0)"/><line class="f" y1="3.732" x2="5.153" transform="translate(2.408 3)"/><line class="f" y2="9.732" transform="translate(4.984 0)"/></g><g transform="matrix(0.799, -0.602, 0.602, 0.799, 901.623, 467.819)"><line class="f" x1="9.969" y1="9.732" transform="translate(0 0)"/><line class="f" y1="3.732" x2="5.153" transform="translate(2.408 3)"/><line class="f" y2="9.732" transform="translate(4.984 0)"/></g><g transform="matrix(0.799, -0.602, 0.602, 0.799, 928.111, 661.059)"><line class="f" x1="9.969" y1="9.732" transform="translate(0 0)"/><line class="f" y1="3.732" x2="5.153" transform="translate(2.408 3)"/><line class="f" y2="9.732" transform="translate(4.984 0)"/></g><g transform="matrix(0.799, -0.602, 0.602, 0.799, 1068.341, 11.311)"><line class="f" x1="9.969" y1="9.732" transform="translate(0 0)"/><line class="f" y1="3.732" x2="5.153" transform="translate(2.408 3)"/><line class="f" y2="9.732" transform="translate(4.984 0)"/></g><g transform="matrix(0.799, -0.602, 0.602, 0.799, 1401.341, 106.311)"><line class="f" x1="9.969" y1="9.732" transform="translate(0 0)"/><line class="f" y1="3.732" x2="5.153" transform="translate(2.408 3)"/><line class="f" y2="9.732" transform="translate(4.984 0)"/></g><g transform="matrix(0.799, -0.602, 0.602, 0.799, 315.341, 83.311)"><line class="f" x1="9.969" y1="9.732" transform="translate(0 0)"/><line class="f" y1="3.732" x2="5.153" transform="translate(2.408 3)"/><line class="f" y2="9.732" transform="translate(4.984 0)"/></g><g transform="matrix(0.799, -0.602, 0.602, 0.799, 500.341, 11.311)"><line class="f" x1="9.969" y1="9.732" transform="translate(0 0)"/><line class="f" y1="3.732" x2="5.153" transform="translate(2.408 3)"/><line class="f" y2="9.732" transform="translate(4.984 0)"/></g><g transform="matrix(-0.799, 0.602, -0.602, -0.799, 1497.935, 59.347)"><line class="f" x1="9.969" y1="9.732" transform="translate(0 0)"/><line class="f" y1="3.732" x2="5.153" transform="translate(2.408 3)"/><line class="f" y2="9.732" transform="translate(4.984 0)"/></g><g transform="matrix(0.799, -0.602, 0.602, 0.799, 729.991, 17.311)"><line class="f" x1="9.969" y1="9.732" transform="translate(0)"/><line class="f" y1="3.732" x2="5.153" transform="translate(2.408 3)"/><line class="f" y2="9.732" transform="translate(4.984 0)"/></g><g transform="matrix(0.799, -0.602, 0.602, 0.799, 161.991, 17.311)"><line class="f" x1="9.969" y1="9.732" transform="translate(0)"/><line class="f" y1="3.732" x2="5.153" transform="translate(2.408 3)"/><line class="f" y2="9.732" transform="translate(4.984 0)"/></g><g transform="matrix(-0.799, 0.602, -0.602, -0.799, 1836.284, 53.347)"><line class="f" x1="9.969" y1="9.732" transform="translate(0 0)"/><line class="f" y1="3.732" x2="5.153" transform="translate(2.408 3)"/><line class="f" y2="9.732" transform="translate(4.984 0)"/></g><g transform="translate(750.187 159.004)"><line class="f" x2="9.969" y2="9.732"/><line class="f" x1="5.153" y2="3.732" transform="translate(2.408 3)"/><line class="f" y1="9.732" transform="translate(4.984)"/></g><g transform="matrix(0.998, 0.07, -0.07, 0.998, 969.056, 38.836)"><line class="f" x1="9.969" y2="9.732" transform="translate(0 0)"/><line class="f" x2="5.153" y2="3.732" transform="translate(2.408 3)"/><line class="f" y1="9.732" transform="translate(4.984 0)"/></g><g transform="matrix(0.998, 0.07, -0.07, 0.998, 401.056, 38.836)"><line class="f" x1="9.969" y2="9.732" transform="translate(0 0)"/><line class="f" x2="5.153" y2="3.732" transform="translate(2.408 3)"/><line class="f" y1="9.732" transform="translate(4.984 0)"/></g><g transform="matrix(-0.998, -0.07, 0.07, -0.998, 1597.219, 31.823)"><line class="f" x1="9.969" y2="9.732" transform="translate(0 0)"/><line class="f" x2="5.153" y2="3.732" transform="translate(2.408 3)"/><line class="f" y1="9.732" transform="translate(4.984 0)"/></g><g transform="matrix(-0.799, -0.602, 0.602, -0.799, 975.906, 272.882)"><line class="f" x1="9.969" y1="9.732" transform="translate(0 0)"/><line class="f" y1="3.732" x2="5.153" transform="translate(2.408 3)"/><line class="f" y2="9.732" transform="translate(4.984 0)"/></g><g transform="matrix(-0.799, -0.602, 0.602, -0.799, 87.906, 28.882)"><line class="f" x1="9.969" y1="9.732" transform="translate(0 0)"/><line class="f" y1="3.732" x2="5.153" transform="translate(2.408 3)"/><line class="f" y2="9.732" transform="translate(4.984 0)"/></g><g transform="matrix(-0.454, 0.891, -0.891, -0.454, 1160.649, 262.381)"><line class="f" x1="9.969" y1="9.732" transform="translate(0 0)"/><line class="f" y1="3.732" x2="5.153" transform="translate(2.408 3)"/><line class="f" y2="9.732" transform="translate(4.984 0)"/></g><g transform="matrix(-0.454, 0.891, -0.891, -0.454, 272.649, 18.381)"><line class="f" x1="9.969" y1="9.732" transform="translate(0 0)"/><line class="f" y1="3.732" x2="5.153" transform="translate(2.408 3)"/><line class="f" y2="9.732" transform="translate(4.984 0)"/></g><g transform="translate(1081.873 382.36) rotate(-139)"><line class="f" x1="9.969" y2="9.732" transform="translate(0 0)"/><line class="f" x2="5.153" y2="3.732" transform="translate(2.408 3)"/><line class="f" y1="9.732" transform="translate(4.984 0)"/></g><g transform="matrix(-0.454, 0.891, -0.891, -0.454, 1031.401, 109.689)"><line class="f" x1="9.969" y1="9.732" transform="translate(0 0)"/><line class="f" y1="3.732" x2="5.153" transform="translate(2.408 3)"/><line class="f" y2="9.732" transform="translate(4.984 0)"/></g><g transform="matrix(-0.454, 0.891, -0.891, -0.454, 1394.401, 211.689)"><line class="f" x1="9.969" y1="9.732" transform="translate(0 0)"/><line class="f" y1="3.732" x2="5.153" transform="translate(2.408 3)"/><line class="f" y2="9.732" transform="translate(4.984 0)"/></g><g transform="matrix(0.799, -0.602, 0.602, 0.799, 1199.976, 51.108)"><line class="f" x1="9.969" y2="9.732" transform="translate(0 0)"/><line class="f" x2="5.153" y2="3.732" transform="translate(2.408 3)"/><line class="f" y1="9.732" transform="translate(4.984 0)"/></g><g transform="matrix(0.799, -0.602, 0.602, 0.799, 631.976, 51.108)"><line class="f" x1="9.969" y2="9.732" transform="translate(0 0)"/><line class="f" x2="5.153" y2="3.732" transform="translate(2.408 3)"/><line class="f" y1="9.732" transform="translate(4.984 0)"/></g><g transform="matrix(-0.799, 0.602, -0.602, -0.799, 1366.3, 19.551)"><line class="f" x1="9.969" y2="9.732" transform="translate(0 0)"/><line class="f" x2="5.153" y2="3.732" transform="translate(2.408 3)"/><line class="f" y1="9.732" transform="translate(4.984 0)"/></g><g transform="matrix(0.799, -0.602, 0.602, 0.799, 903.935, 400.509)"><line class="f" x1="9.969" y2="9.732" transform="translate(0 0)"/><line class="f" x2="5.153" y2="3.732" transform="translate(2.408 3)"/><line class="f" y1="9.732" transform="translate(4.984 0)"/></g><g transform="matrix(0.799, -0.602, 0.602, 0.799, 165.935, 285.509)"><line class="f" x1="9.969" y2="9.732" transform="translate(0 0)"/><line class="f" x2="5.153" y2="3.732" transform="translate(2.408 3)"/><line class="f" y1="9.732" transform="translate(4.984 0)"/></g><g transform="matrix(0.799, -0.602, 0.602, 0.799, 534.935, 128.509)"><line class="f" x1="9.969" y2="9.732" transform="translate(0 0)"/><line class="f" x2="5.153" y2="3.732" transform="translate(2.408 3)"/><line class="f" y1="9.732" transform="translate(4.984 0)"/></g><g transform="translate(851.586 274.508)"><line class="f" y1="9.732" x2="9.969"/><line class="f" x1="5.153" y1="3.732" transform="translate(2.408 3)"/><line class="f" y2="9.732" transform="translate(4.984)"/></g><g transform="matrix(0.998, 0.07, -0.07, 0.998, 875.839, 161.292)"><line class="f" x1="9.969" y1="9.732" transform="translate(0 0)"/><line class="f" y1="3.732" x2="5.153" transform="translate(2.408 3)"/><line class="f" y2="9.732" transform="translate(4.984)"/></g><g transform="matrix(-0.799, -0.602, 0.602, -0.799, 960.584, 407.99)"><line class="f" x1="9.969" y2="9.732" transform="translate(0 0)"/><line class="f" x2="5.153" y2="3.732" transform="translate(2.408 3)"/><line class="f" y1="9.732" transform="translate(4.984 0)"/></g><g transform="matrix(-0.799, -0.602, 0.602, -0.799, 222.584, 292.99)"><line class="f" x1="9.969" y2="9.732" transform="translate(0 0)"/><line class="f" x2="5.153" y2="3.732" transform="translate(2.408 3)"/><line class="f" y1="9.732" transform="translate(4.984 0)"/></g><g transform="matrix(-0.799, -0.602, 0.602, -0.799, 591.584, 135.99)"><line class="f" x1="9.969" y2="9.732" transform="translate(0 0)"/><line class="f" x2="5.153" y2="3.732" transform="translate(2.408 3)"/><line class="f" y1="9.732" transform="translate(4.984 0)"/></g><g transform="matrix(0.799, -0.602, 0.602, 0.799, 1248.182, 200.405)"><line class="f" x1="9.969" y1="9.732" transform="translate(0 0)"/><line class="f" y1="3.732" x2="5.153" transform="translate(2.408 3)"/><line class="f" y2="9.732" transform="translate(4.984 0)"/></g><g transform="matrix(0.966, 0.259, -0.259, 0.966, 1168.727, 406.602)"><line class="f" x1="9.969" y2="9.732" transform="translate(0 0)"/><line class="f" x2="5.153" y2="3.732" transform="translate(2.408 3)"/><line class="f" y1="9.732" transform="translate(4.984 0)"/></g><g transform="matrix(0.799, -0.602, 0.602, 0.799, 919.256, 535.617)"><line class="f" x1="9.969" y1="9.732" transform="translate(0 0)"/><line class="f" y1="3.732" x2="5.153" transform="translate(2.408 3)"/><line class="f" y2="9.732" transform="translate(4.984 0)"/></g><g transform="matrix(0.799, -0.602, 0.602, 0.799, 945.744, 752.51)"><line class="f" x1="9.969" y1="9.732" transform="translate(0 0)"/><line class="f" y1="3.732" x2="5.153" transform="translate(2.408 3)"/><line class="f" y2="9.732" transform="translate(4.984 0)"/></g><g transform="matrix(0.799, -0.602, 0.602, 0.799, 1085.974, 62.886)"><line class="f" x1="9.969" y1="9.732" transform="translate(0 0)"/><line class="f" y1="3.732" x2="5.153" transform="translate(2.408 3)"/><line class="f" y2="9.732" transform="translate(4.984 0)"/></g><g transform="matrix(0.799, -0.602, 0.602, 0.799, 365.974, 182.886)"><line class="f" x1="9.969" y1="9.732" transform="translate(0 0)"/><line class="f" y1="3.732" x2="5.153" transform="translate(2.408 3)"/><line class="f" y2="9.732" transform="translate(4.984 0)"/></g><g transform="matrix(0.799, -0.602, 0.602, 0.799, -0.026, 39.886)"><line class="f" x1="9.969" y1="9.732" transform="translate(0 0)"/><line class="f" y1="3.732" x2="5.153" transform="translate(2.408 3)"/><line class="f" y2="9.732" transform="translate(4.984 0)"/></g><g transform="matrix(0.799, -0.602, 0.602, 0.799, 1673.974, 31.886)"><line class="f" x1="9.969" y1="9.732" transform="translate(0 0)"/><line class="f" y1="3.732" x2="5.153" transform="translate(2.408 3)"/><line class="f" y2="9.732" transform="translate(4.984 0)"/></g><g transform="matrix(0.799, -0.602, 0.602, 0.799, 517.974, 62.886)"><line class="f" x1="9.969" y1="9.732" transform="translate(0 0)"/><line class="f" y1="3.732" x2="5.153" transform="translate(2.408 3)"/><line class="f" y2="9.732" transform="translate(4.984 0)"/></g><g transform="matrix(-0.799, 0.602, -0.602, -0.799, 1480.301, 7.773)"><line class="f" x1="9.969" y1="9.732" transform="translate(0 0)"/><line class="f" y1="3.732" x2="5.153" transform="translate(2.408 3)"/><line class="f" y2="9.732" transform="translate(4.984 0)"/></g><g transform="matrix(0.799, -0.602, 0.602, 0.799, 741.308, 68.886)"><line class="f" x1="9.969" y1="9.732" transform="translate(0 0)"/><line class="f" y1="3.732" x2="5.153" transform="translate(2.408 3)"/><line class="f" y2="9.732" transform="translate(4.984 0)"/></g><g transform="translate(772.187 73.143)"><line class="f" x2="9.969" y2="9.732"/><line class="f" x1="5.153" y2="3.732" transform="translate(2.408 3)"/><line class="f" y1="9.732" transform="translate(4.984)"/></g><g transform="matrix(-0.799, -0.602, 0.602, -0.799, 1048.291, 239.894)"><line class="f" x1="9.969" y1="9.732" transform="translate(0 0)"/><line class="f" y1="3.732" x2="5.153" transform="translate(2.408 3)"/><line class="f" y2="9.732" transform="translate(4.984 0)"/></g><g transform="matrix(-0.454, 0.891, -0.891, -0.454, 1109.603, 207.977)"><line class="f" x1="9.969" y1="9.732" transform="translate(0 0)"/><line class="f" y1="3.732" x2="5.153" transform="translate(2.408 3)"/><line class="f" y2="9.732" transform="translate(4.984 0)"/></g><g transform="translate(1058.675 448.957) rotate(-139)"><line class="f" x1="9.969" y2="9.732" transform="translate(0 0)"/><line class="f" x2="5.153" y2="3.732" transform="translate(2.408 3)"/><line class="f" y1="9.732" transform="translate(4.984 0)"/></g><g transform="translate(689.675 176.957) rotate(-139)"><line class="f" x1="9.969" y2="9.732" transform="translate(0 0)"/><line class="f" x2="5.153" y2="3.732" transform="translate(2.408 3)"/><line class="f" y1="9.732" transform="translate(4.984 0)"/></g><g transform="matrix(0.799, -0.602, 0.602, 0.799, 1127.59, 26.013)"><line class="f" x1="9.969" y2="9.732" transform="translate(0 0)"/><line class="f" x2="5.153" y2="3.732" transform="translate(2.408 3)"/><line class="f" y1="9.732" transform="translate(4.984 0)"/></g><g transform="matrix(0.799, -0.602, 0.602, 0.799, 1460.59, 121.013)"><line class="f" x1="9.969" y2="9.732" transform="translate(0 0)"/><line class="f" x2="5.153" y2="3.732" transform="translate(2.408 3)"/><line class="f" y1="9.732" transform="translate(4.984 0)"/></g><g transform="matrix(0.799, -0.602, 0.602, 0.799, 435.59, 89.013)"><line class="f" x1="9.969" y2="9.732" transform="translate(0 0)"/><line class="f" x2="5.153" y2="3.732" transform="translate(2.408 3)"/><line class="f" y1="9.732" transform="translate(4.984 0)"/></g><g transform="matrix(0.799, -0.602, 0.602, 0.799, 559.59, 26.013)"><line class="f" x1="9.969" y2="9.732" transform="translate(0 0)"/><line class="f" x2="5.153" y2="3.732" transform="translate(2.408 3)"/><line class="f" y1="9.732" transform="translate(4.984 0)"/></g><g transform="matrix(-0.799, 0.602, -0.602, -0.799, 1438.685, 44.645)"><line class="f" x1="9.969" y2="9.732" transform="translate(0 0)"/><line class="f" x2="5.153" y2="3.732" transform="translate(2.408 3)"/><line class="f" y1="9.732" transform="translate(4.984 0)"/></g><g transform="matrix(-0.454, 0.891, -0.891, -0.454, 1320.922, 251.652)"><line class="f" x1="9.969" y2="9.732" transform="translate(0 0)"/><line class="f" x2="5.153" y2="3.732" transform="translate(2.408 3)"/><line class="f" y1="9.732" transform="translate(4.984 0)"/></g><g transform="translate(1263.713 341.623) rotate(-139)"><line class="f" x1="9.969" y1="9.732" transform="translate(0)"/><line class="f" y1="3.732" x2="5.153" transform="translate(2.408 3)"/><line class="f" y2="9.732" transform="translate(4.984 0)"/></g><g transform="translate(1820.713 195.623) rotate(-139)"><line class="f" x1="9.969" y1="9.732" transform="translate(0)"/><line class="f" y1="3.732" x2="5.153" transform="translate(2.408 3)"/><line class="f" y2="9.732" transform="translate(4.984 0)"/></g><g transform="matrix(-0.454, 0.891, -0.891, -0.454, 1025.054, 586.804)"><line class="f" x1="9.969" y2="9.732" transform="translate(0 0)"/><line class="f" x2="5.153" y2="3.732" transform="translate(2.408 3)"/><line class="f" y1="9.732" transform="translate(4.984 0)"/></g><g transform="matrix(-0.454, 0.891, -0.891, -0.454, 265.934, -23.964)"><line class="f" x1="15" y1="15" transform="translate(5.721 7.754)"/><line class="f" y1="22.754" x2="20.721" transform="translate(0 0)"/><line class="f" y2="15" transform="translate(10.36 7.754)"/></g><g transform="matrix(-0.799, -0.602, 0.602, -0.799, 70.574, -10.937)"><line class="f" x1="15" y1="15" transform="translate(0 0)"/><line class="f" y1="9" x2="10.185" transform="translate(2.408 3)"/><line class="f" y2="15" transform="translate(7.5 0)"/></g><g transform="matrix(-0.799, -0.602, 0.602, -0.799, 160.291, -4.106)"><line class="f" x1="9.969" y1="9.732" transform="translate(0 0)"/><line class="f" y1="3.732" x2="5.153" transform="translate(2.408 3)"/><line class="f" y2="9.732" transform="translate(4.984 0)"/></g></g><rect class="g" width="2112" height="1265" transform="translate(-35)"/></g></svg>